<?xml version="1.0" encoding="UTF-8"?>
<svg id="Layer_1" xmlns="http://www.w3.org/2000/svg" version="1.1" viewBox="0 0 512 512">
  <!-- Generator: Adobe Illustrator 29.7.1, SVG Export Plug-In . SVG Version: 2.1.1 Build 8)  -->
  <defs>
    <style>
      .st0 {
        fill: #fff;
      }

      .st1 {
        fill: #004368;
      }
    </style>
  </defs>
  <path class="st1" d="M256,0C114.6,0,0,114.6,0,256s114.6,256,256,256,256-114.6,256-256S397.4,0,256,0ZM256,128c39.8,0,72,32.2,72,72s-32.2,72-72,72-72-32.2-72-72,32.2-72,72-72ZM256,448c-56.8,0-107.8-24.6-143-63.8,22.1-38.4,63.6-64.2,111-64.2h64c47.4,0,88.9,25.8,111,64.2-35.2,39.1-86.2,63.8-143,63.8Z"/>
  <circle class="st0" cx="256" cy="200" r="72"/>
  <path class="st0" d="M399,384.2c-35.2,39.1-86.2,63.8-143,63.8s-107.8-24.6-143-63.8c22.1-38.4,63.6-64.2,111-64.2h64c47.4,0,88.9,25.8,111,64.2Z"/>
</svg>